#!OML:ASF I:\Actors\actors\Patient Classification 2\Patient 1\Session 1\actor1.ASF
:FULLY-SPECIFIED
:DEGREES
226
root -0.561256 18.5632 5.74128 -1.83584 -12.3029 -2.73476
lowerback 24.3342 0.610494 2.40897
upperback 3.18259 1.47062 0.710454
thorax -10.0076 0.598576 -1.06477
lowerneck -8.91109 -7.6007 -6.48368
upperneck 22.5152 -11.2543 7.52763
head 9.34324 -5.08804 2.39896
rclavicle -1.76794e-014 4.82053e-015
rhumerus -89.9239 14.586 -105.935
rradius 111.558
rwrist -7.56337
rhand -21.1821 -41.8767
rfingers 7.12502
rthumb 5.19856 -71.793
lclavicle -1.76794e-014 4.82053e-015
lhumerus -88.6385 -20.8936 112.883
lradius 112.154
lwrist 28.8463
lhand -30.0415 -24.8452
lfingers 7.12502
lthumb -3.35755 5.10808
rfemur 8.18886 5.57282 15.4821
rtibia 1.90833e-014
rfoot -11.6325 -8.07575
rtoes -12.7604
lfemur -1.48859 2.83798 -12
ltibia 25.8109
lfoot -23.7016 11.6277
ltoes -55.6888
227
root -0.562447 18.5669 5.7371 -1.72067 -12.237 -2.72093
lowerback 24.5006 0.47641 2.51069
upperback 3.23616 1.3245 0.696955
thorax -10.0375 0.525315 -1.09335
lowerneck -9.07663 -7.83765 -6.74401
upperneck 22.4826 -11.4951 7.39063
head 9.39071 -5.22985 2.35641
rclavicle 5.61442e-014 8.92046e-015
rhumerus -89.8006 14.7561 -105.964
rradius 111.586
rwrist -7.60627
rhand -21.2078 -41.7109
rfingers 7.12502
rthumb 5.17375 -71.6277
lclavicle 5.61442e-014 8.92046e-015
lhumerus -88.6425 -20.8478 112.756
lradius 112.157
lwrist 28.8464
lhand -30.1186 -24.7828
lfingers 7.12502
lthumb -3.43198 5.16937
rfemur 8.05707 5.49845 15.4551
rtibia -4.05521e-014
rfoot -11.6135 -8.0546
rtoes -12.465
lfemur -1.60809 2.86641 -11.9972
ltibia 25.7474
lfoot -23.6751 11.5512
ltoes -55.6519
228
root -0.563975 18.571 5.7307 -1.57731 -12.1235 -2.67723
lowerback 24.7108 0.327996 2.58582
upperback 3.32229 1.15784 0.721958
thorax -10.0562 0.4446 -1.05704
lowerneck -9.16854 -7.9491 -7.06331
upperneck 22.2389 -11.5929 7.50215
head 9.35863 -5.29124 2.42958
rclavicle -3.35698e-014 1.19271e-015
rhumerus -89.6214 14.947 -105.916
rradius 111.633
rwrist -7.59163
rhand -21.2495 -41.5469
rfingers 7.12502
rthumb 5.13349 -71.4647
lclavicle -3.35698e-014 1.19271e-015
lhumerus -88.5331 -20.8065 112.64
lradius 112.138
lwrist 28.9311
lhand -30.0272 -24.7309
lfingers 7.12502
lthumb -3.34369 5.22261
rfemur 7.88763 5.37494 15.3923
rtibia 8.74653e-015
rfoot -11.6158 -8.03315
rtoes -12.0967
lfemur -1.81085 2.85079 -12.0304
ltibia 25.7219
lfoot -23.6088 11.4782
ltoes -55.592
229
root -0.564743 18.5755 5.72307 -1.43921 -12.0334 -2.63062
lowerback 24.9355 0.188314 2.67541
upperback 3.47421 1.00755 0.768999
thorax -10.0079 0.372797 -1.00891
lowerneck -9.31675 -7.96303 -7.17661
upperneck 22.0604 -11.5666 7.5072
head 9.32958 -5.28544 2.44729
rclavicle 3.5334e-014 -1.81391e-014
rhumerus -89.3981 15.1065 -105.84
rradius 111.721
rwrist -7.50395
rhand -21.3534 -41.472
rfingers 7.12502
rthumb 5.03317 -71.3922
lclavicle 3.5334e-014 -1.81391e-014
lhumerus -88.3319 -20.809 112.54
lradius 112.092
lwrist 29.0707
lhand -29.8655 -24.8051
lfingers 7.12502
lthumb -3.18758 5.15082
rfemur 7.71472 5.27521 15.325
rtibia -1.43125e-014
rfoot -11.6274 -8.03744
rtoes -11.833
lfemur -2.04909 2.87705 -12.0702
ltibia 25.7651
lfoot -23.5049 11.4473
ltoes -55.6453
230
root -0.564682 18.5814 5.71124 -1.285 -11.963 -2.57896
lowerback 25.1373 0.0656578 2.76784
upperback 3.69331 0.878855 0.82837
thorax -9.87063 0.312929 -0.95477
lowerneck -9.19223 -7.85941 -6.97252
upperneck 21.8237 -11.3829 7.26728
head 9.18031 -5.21385 2.36286
rclavicle 1.79155e-014 3.67752e-015
rhumerus -89.169 15.3069 -105.707
rradius 111.898
rwrist -7.4652
rhand -21.5036 -41.3736
rfingers 7.12502
rthumb 4.88809 -71.2972
lclavicle 1.79155e-014 3.67752e-015
lhumerus -88.1044 -20.8521 112.436
lradius 112.07
lwrist 29.1967
lhand -29.7976 -24.8837
lfingers 7.12502
lthumb -3.12198 5.07323
rfemur 7.50738 5.19336 15.2556
rtibia -5.56597e-015
rfoot -11.5725 -8.12381
rtoes -11.7328
lfemur -2.3773 2.96467 -12.1175
ltibia 25.9116
lfoot -23.4302 11.4584
ltoes -55.7451
